<?xml version="1.0" standalone="no"?>
<!DOCTYPE svg PUBLIC "-//W3C//DTD SVG 20010904//EN"
 "http://www.w3.org/TR/2001/REC-SVG-20010904/DTD/svg10.dtd">
<svg version="1.0" xmlns="http://www.w3.org/2000/svg"
 width="512.000000pt" height="512.000000pt" viewBox="0 0 512.000000 512.000000"
 preserveAspectRatio="xMidYMid meet">

<g transform="translate(0.000000,512.000000) scale(0.100000,-0.100000)"
fill="#000000" stroke="none">
<path d="M508 4274 c-87 -21 -156 -60 -224 -128 -67 -67 -106 -134 -129 -223
-23 -86 -23 -2640 0 -2726 44 -170 178 -305 344 -349 61 -16 208 -17 2052 -17
1312 -1 2005 2 2040 9 131 25 274 131 333 248 59 115 56 50 56 1472 0 1125 -2
1314 -15 1363 -47 179 -198 323 -374 357 -35 7 -727 10 -2040 9 -1658 -1
-1995 -3 -2043 -15z m4135 -156 c32 -15 57 -32 55 -37 -4 -14 -2129 -2041
-2138 -2041 -8 0 -2134 2027 -2138 2040 -4 11 48 38 103 56 32 10 449 12 2050
11 l2010 -2 58 -27z m-3480 -942 c351 -335 636 -613 634 -619 -1 -5 -333 -326
-737 -712 l-735 -702 -20 36 c-20 35 -20 55 -20 1376 0 1297 1 1342 19 1383
l19 42 101 -98 c56 -53 388 -371 739 -706z m3672 -616 c0 -1326 0 -1346 -20
-1382 l-20 -37 -738 706 c-406 388 -736 710 -734 716 2 6 334 326 738 712
l734 702 20 -36 c20 -35 20 -55 20 -1381z m-2611 -397 c260 -249 311 -293 336
-293 25 0 76 44 336 293 168 160 309 293 313 295 6 2 1483 -1405 1489 -1420 2
-5 -23 -21 -55 -36 l-58 -27 -2025 0 -2025 0 -58 27 c-32 15 -57 32 -55 37 6
16 1481 1422 1489 1419 4 -2 145 -135 313 -295z"/>
</g>
</svg>
